<svg width="22" height="22" viewBox="0 0 22 22" fill="none" xmlns="http://www.w3.org/2000/svg">
<path d="M12.8335 14.6665C12.8335 16.289 12.1277 17.7556 11.0002 18.7548C10.0285 19.6348 8.74516 20.1665 7.3335 20.1665C4.29933 20.1665 1.8335 17.7006 1.8335 14.6665C1.8335 12.8276 2.74588 11.1964 4.13692 10.2C4.38359 10.0234 4.71937 10.1429 4.85522 10.4142C5.72513 12.1516 7.30691 13.4514 9.18516 13.9606C9.76266 14.1256 10.3677 14.2081 11.0002 14.2081C11.4308 14.2081 11.8439 14.1687 12.2456 14.096C12.5343 14.0438 12.8214 14.2286 12.8311 14.5218C12.8327 14.5702 12.8335 14.6185 12.8335 14.6665Z" fill="white"/>
<path d="M16.5 7.3335C16.5 8.0485 16.3625 8.736 16.115 9.35933C15.4825 10.9543 14.1258 12.1827 12.4483 12.641C11.99 12.7693 11.5042 12.8335 11 12.8335C10.4958 12.8335 10.01 12.7693 9.55167 12.641C7.87417 12.1827 6.5175 10.9543 5.885 9.35933C5.6375 8.736 5.5 8.0485 5.5 7.3335C5.5 4.29933 7.96583 1.8335 11 1.8335C14.0342 1.8335 16.5 4.29933 16.5 7.3335Z" fill="white"/>
<path d="M20.1668 14.6665C20.1668 17.7006 17.701 20.1665 14.6668 20.1665C14.0047 20.1665 13.367 20.0493 12.7785 19.8329C12.4586 19.7152 12.399 19.3073 12.6186 19.0465C13.6419 17.8316 14.2085 16.284 14.2085 14.6665C14.2085 14.3548 14.181 14.0431 14.1352 13.7498C14.1079 13.5807 14.1942 13.4145 14.344 13.3315C15.5439 12.6673 16.5263 11.6535 17.1453 10.4151C17.2811 10.1434 17.6171 10.0236 17.864 10.2005C19.2547 11.1969 20.1668 12.8279 20.1668 14.6665Z" fill="white"/>
</svg>
