<svg width="22" height="22" viewBox="0 0 22 22" fill="none" xmlns="http://www.w3.org/2000/svg">
<path opacity="0.7" d="M20.1388 5.876V11.8343H1.83301V5.876C1.83301 3.6485 3.64801 1.8335 5.87551 1.8335H16.0963C18.3238 1.8335 20.1388 3.6485 20.1388 5.876Z" fill="white"/>
<path d="M1.83301 11.8433V12.0266C1.83301 14.2633 3.64801 16.0691 5.87551 16.0691H9.39551C9.89967 16.0691 10.3122 16.4816 10.3122 16.9858V17.8749C10.3122 18.3791 9.89967 18.7916 9.39551 18.7916H7.17717C6.80134 18.7916 6.48967 19.1033 6.48967 19.4791C6.48967 19.8549 6.79217 20.1666 7.17717 20.1666H14.8313C15.2072 20.1666 15.5188 19.8549 15.5188 19.4791C15.5188 19.1033 15.2072 18.7916 14.8313 18.7916H12.613C12.1088 18.7916 11.6963 18.3791 11.6963 17.8749V16.9858C11.6963 16.4816 12.1088 16.0691 12.613 16.0691H16.1055C18.3422 16.0691 20.148 14.2541 20.148 12.0266V11.8433H1.83301V11.8433Z" fill="white"/>
</svg>
