<svg width="22" height="22" viewBox="0 0 22 22" fill="none" xmlns="http://www.w3.org/2000/svg">
<path d="M16.0966 16.4724H5.90325C2.25492 16.4724 1.14575 15.3633 1.14575 11.7149V5.90325C1.14575 2.25492 2.25492 1.14575 5.90325 1.14575H16.0874C19.7358 1.14575 20.8449 2.25492 20.8449 5.90325V11.7058C20.8541 15.3633 19.7449 16.4724 16.0966 16.4724ZM5.90325 2.52075C3.02492 2.52075 2.52075 3.02492 2.52075 5.90325V11.7058C2.52075 14.5841 3.02492 15.0883 5.90325 15.0883H16.0874C18.9658 15.0883 19.4699 14.5841 19.4699 11.7058V5.90325C19.4699 3.02492 18.9658 2.52075 16.0874 2.52075H5.90325V2.52075Z" fill="#89909A"/>
<path d="M11 20.8541C10.6242 20.8541 10.3125 20.5424 10.3125 20.1666V15.7849C10.3125 15.4091 10.6242 15.0974 11 15.0974C11.3758 15.0974 11.6875 15.4091 11.6875 15.7849V20.1666C11.6875 20.5424 11.3758 20.8541 11 20.8541Z" fill="#89909A"/>
<path d="M20.1666 12.6042H1.83325C1.45742 12.6042 1.14575 12.2926 1.14575 11.9167C1.14575 11.5409 1.45742 11.2292 1.83325 11.2292H20.1666C20.5424 11.2292 20.8541 11.5409 20.8541 11.9167C20.8541 12.2926 20.5424 12.6042 20.1666 12.6042Z" fill="#89909A"/>
<path d="M15.125 20.8542H6.875C6.49917 20.8542 6.1875 20.5426 6.1875 20.1667C6.1875 19.7909 6.49917 19.4792 6.875 19.4792H15.125C15.5008 19.4792 15.8125 19.7909 15.8125 20.1667C15.8125 20.5426 15.5008 20.8542 15.125 20.8542Z" fill="#89909A"/>
</svg>
