<svg width="22" height="22" viewBox="0 0 22 22" fill="none" xmlns="http://www.w3.org/2000/svg">
<path d="M13.7499 20.8543H8.24992C3.27242 20.8543 1.14575 18.7277 1.14575 13.7502V8.25016C1.14575 3.27266 3.27242 1.146 8.24992 1.146H13.7499C18.7274 1.146 20.8541 3.27266 20.8541 8.25016V13.7502C20.8541 18.7277 18.7274 20.8543 13.7499 20.8543ZM8.24992 2.521C4.02409 2.521 2.52075 4.02433 2.52075 8.25016V13.7502C2.52075 17.976 4.02409 19.4793 8.24992 19.4793H13.7499C17.9758 19.4793 19.4791 17.976 19.4791 13.7502V8.25016C19.4791 4.02433 17.9758 2.521 13.7499 2.521H8.24992Z" fill="#89909A"/>
<path d="M11 20.8543C10.6242 20.8543 10.3125 20.5427 10.3125 20.1668V1.8335C10.3125 1.45766 10.6242 1.146 11 1.146C11.3758 1.146 11.6875 1.45766 11.6875 1.8335V20.1668C11.6875 20.5427 11.3758 20.8543 11 20.8543Z" fill="#89909A"/>
<path d="M10.9999 9.396H1.83325C1.45742 9.396 1.14575 9.08433 1.14575 8.7085C1.14575 8.33266 1.45742 8.021 1.83325 8.021H10.9999C11.3758 8.021 11.6874 8.33266 11.6874 8.7085C11.6874 9.08433 11.3758 9.396 10.9999 9.396Z" fill="#89909A"/>
<path d="M20.1667 13.979H11C10.6242 13.979 10.3125 13.6673 10.3125 13.2915C10.3125 12.9157 10.6242 12.604 11 12.604H20.1667C20.5425 12.604 20.8542 12.9157 20.8542 13.2915C20.8542 13.6673 20.5425 13.979 20.1667 13.979Z" fill="#89909A"/>
</svg>
