<svg width="22" height="22" viewBox="0 0 22 22" fill="none" xmlns="http://www.w3.org/2000/svg">
<path d="M14.6666 8.021C14.2908 8.021 13.9791 7.70933 13.9791 7.3335V4.12516C13.9791 3.13516 13.3649 2.521 12.3749 2.521H9.62492C8.63492 2.521 8.02075 3.13516 8.02075 4.12516V7.3335C8.02075 7.70933 7.70909 8.021 7.33325 8.021C6.95742 8.021 6.64575 7.70933 6.64575 7.3335V4.12516C6.64575 2.37433 7.87409 1.146 9.62492 1.146H12.3749C14.1258 1.146 15.3541 2.37433 15.3541 4.12516V7.3335C15.3541 7.70933 15.0424 8.021 14.6666 8.021Z" fill="white" fill-opacity="0.9"/>
<path d="M7.33335 16.2985C6.95752 16.2985 6.64585 15.9868 6.64585 15.611C6.64585 15.226 6.95752 14.9235 7.33335 14.9235H18.1134C18.3884 14.9235 18.5992 14.6852 18.5717 14.4102L17.9484 9.19433C17.7284 7.416 17.4167 5.9585 14.3 5.9585H7.70002C4.58335 5.9585 4.27169 7.416 4.06085 9.19433L3.23585 16.0693C2.97002 18.3243 3.66669 20.1668 6.88419 20.1668H15.1159C18.0125 20.1668 18.865 18.6727 18.8192 16.7293C18.81 16.4818 18.6084 16.2985 18.3609 16.2985H7.33335Z" fill="white"/>
</svg>
