<svg width="22" height="22" viewBox="0 0 22 22" fill="none" xmlns="http://www.w3.org/2000/svg">
<path d="M20.1666 8.47925H1.83325C1.45742 8.47925 1.14575 8.16758 1.14575 7.79175C1.14575 7.41591 1.45742 7.10425 1.83325 7.10425H20.1666C20.5424 7.10425 20.8541 7.41591 20.8541 7.79175C20.8541 8.16758 20.5424 8.47925 20.1666 8.47925Z" fill="#89909A"/>
<path d="M7.33333 15.8125H5.5C5.12417 15.8125 4.8125 15.5008 4.8125 15.125C4.8125 14.7492 5.12417 14.4375 5.5 14.4375H7.33333C7.70917 14.4375 8.02083 14.7492 8.02083 15.125C8.02083 15.5008 7.70917 15.8125 7.33333 15.8125Z" fill="#89909A"/>
<path d="M13.2917 15.8125H9.625C9.24917 15.8125 8.9375 15.5008 8.9375 15.125C8.9375 14.7492 9.24917 14.4375 9.625 14.4375H13.2917C13.6675 14.4375 13.9792 14.7492 13.9792 15.125C13.9792 15.5008 13.6675 15.8125 13.2917 15.8125Z" fill="#89909A"/>
<path d="M16.0966 19.4791H5.90325C2.25492 19.4791 1.14575 18.3791 1.14575 14.7674V7.23242C1.14575 3.62075 2.25492 2.52075 5.90325 2.52075H16.0874C19.7358 2.52075 20.8449 3.62075 20.8449 7.23242V14.7583C20.8541 18.3791 19.7449 19.4791 16.0966 19.4791ZM5.90325 3.89575C3.02492 3.89575 2.52075 4.39075 2.52075 7.23242V14.7583C2.52075 17.5999 3.02492 18.0949 5.90325 18.0949H16.0874C18.9658 18.0949 19.4699 17.5999 19.4699 14.7583V7.23242C19.4699 4.39075 18.9658 3.89575 16.0874 3.89575H5.90325Z" fill="#89909A"/>
</svg>
