<svg width="22" height="22" viewBox="0 0 22 22" fill="none" xmlns="http://www.w3.org/2000/svg">
<path d="M7.58075 20.8541H3.87742C2.03492 20.8541 1.14575 20.0016 1.14575 18.2416V3.75825C1.14575 1.99825 2.04409 1.14575 3.87742 1.14575H7.58075C9.42325 1.14575 10.3124 1.99825 10.3124 3.75825V18.2416C10.3124 20.0016 9.41409 20.8541 7.58075 20.8541ZM3.87742 2.52075C2.71325 2.52075 2.52075 2.83242 2.52075 3.75825V18.2416C2.52075 19.1674 2.71325 19.4791 3.87742 19.4791H7.58075C8.74492 19.4791 8.93742 19.1674 8.93742 18.2416V3.75825C8.93742 2.83242 8.74492 2.52075 7.58075 2.52075H3.87742V2.52075Z" fill="#89909A"/>
<path d="M18.1225 12.6041H14.4192C12.5767 12.6041 11.6875 11.7516 11.6875 9.99158V3.75825C11.6875 1.99825 12.5858 1.14575 14.4192 1.14575H18.1225C19.965 1.14575 20.8542 1.99825 20.8542 3.75825V9.99158C20.8542 11.7516 19.9558 12.6041 18.1225 12.6041ZM14.4192 2.52075C13.255 2.52075 13.0625 2.83242 13.0625 3.75825V9.99158C13.0625 10.9174 13.255 11.2291 14.4192 11.2291H18.1225C19.2867 11.2291 19.4792 10.9174 19.4792 9.99158V3.75825C19.4792 2.83242 19.2867 2.52075 18.1225 2.52075H14.4192V2.52075Z" fill="#89909A"/>
<path d="M18.1225 20.8542H14.4192C12.5767 20.8542 11.6875 20.0017 11.6875 18.2417V16.5917C11.6875 14.8317 12.5858 13.9792 14.4192 13.9792H18.1225C19.965 13.9792 20.8542 14.8317 20.8542 16.5917V18.2417C20.8542 20.0017 19.9558 20.8542 18.1225 20.8542ZM14.4192 15.3542C13.255 15.3542 13.0625 15.6659 13.0625 16.5917V18.2417C13.0625 19.1676 13.255 19.4792 14.4192 19.4792H18.1225C19.2867 19.4792 19.4792 19.1676 19.4792 18.2417V16.5917C19.4792 15.6659 19.2867 15.3542 18.1225 15.3542H14.4192Z" fill="#89909A"/>
</svg>
