<svg width="22" height="22" viewBox="0 0 22 22" fill="none" xmlns="http://www.w3.org/2000/svg">
<path d="M7.33325 20.8541C3.92325 20.8541 1.14575 18.0766 1.14575 14.6666C1.14575 11.8799 3.01575 9.42327 5.70159 8.69911C6.04075 8.60744 6.38909 8.78161 6.51742 9.11161C7.07659 10.5141 8.26825 11.5866 9.72575 11.9808C10.5324 12.2008 11.4674 12.2008 12.2558 11.9808C12.5949 11.8891 12.9524 12.0633 13.0808 12.3933C13.3649 13.1174 13.5116 13.8874 13.5116 14.6758C13.5116 16.4358 12.7599 18.1133 11.4491 19.2774C10.3308 20.2858 8.86409 20.8541 7.33325 20.8541ZM5.51825 10.2024C3.73075 10.9358 2.52075 12.6958 2.52075 14.6666C2.52075 17.3158 4.68409 19.4791 7.33325 19.4791C8.52492 19.4791 9.66159 19.0391 10.5416 18.2416C11.5683 17.3341 12.1458 16.0324 12.1458 14.6666C12.1458 14.2449 12.0908 13.8416 11.9899 13.4474C11.1283 13.5849 10.1933 13.5391 9.36825 13.3099C7.70909 12.8516 6.31575 11.7149 5.51825 10.2024Z" fill="#89909A"/>
<path d="M11 13.5208C10.4317 13.5208 9.88167 13.4474 9.36833 13.3008C7.5075 12.7874 5.95833 11.4124 5.24333 9.60659C4.95917 8.89159 4.8125 8.12159 4.8125 7.33325C4.8125 3.92325 7.59 1.14575 11 1.14575C14.41 1.14575 17.1875 3.92325 17.1875 7.33325C17.1875 8.12159 17.0408 8.89159 16.7567 9.61575C16.0417 11.4124 14.5017 12.7966 12.6317 13.3099C12.1183 13.4474 11.5683 13.5208 11 13.5208ZM11 2.52075C8.35083 2.52075 6.1875 4.68409 6.1875 7.33325C6.1875 7.94742 6.2975 8.54325 6.52667 9.10242C7.08583 10.5049 8.2775 11.5774 9.735 11.9716C10.5417 12.1916 11.4767 12.1916 12.265 11.9716C13.7225 11.5774 14.9233 10.4958 15.4733 9.10242C15.6933 8.54325 15.8125 7.94742 15.8125 7.33325C15.8125 4.68409 13.6492 2.52075 11 2.52075Z" fill="#89909A"/>
<path d="M14.6667 20.8542C13.1358 20.8542 11.6692 20.2859 10.5417 19.2684C10.395 19.1401 10.3125 18.9476 10.3125 18.7551C10.3125 18.5626 10.395 18.3701 10.5417 18.2417C11.5592 17.3434 12.1458 16.0417 12.1458 14.6667C12.1458 14.0526 12.0358 13.4567 11.8067 12.8976C11.7333 12.7142 11.7425 12.5126 11.8342 12.3384C11.9258 12.1642 12.0817 12.0359 12.265 11.9809C13.7225 11.5867 14.9142 10.5142 15.4733 9.11175C15.6017 8.78175 15.9592 8.61675 16.2892 8.69925C18.975 9.43258 20.845 11.8801 20.845 14.6667C20.8542 18.0767 18.0767 20.8542 14.6667 20.8542ZM12.0267 18.6909C12.8058 19.2042 13.7133 19.4792 14.6667 19.4792C17.3158 19.4792 19.4792 17.3159 19.4792 14.6667C19.4792 12.6959 18.2692 10.9359 16.4817 10.2026C15.8033 11.4951 14.6667 12.5217 13.31 13.0717C13.4475 13.5851 13.5208 14.1259 13.5208 14.6667C13.5208 16.1517 12.9892 17.5817 12.0267 18.6909Z" fill="#89909A"/>
</svg>
