<svg width="22" height="22" viewBox="0 0 22 22" fill="none" xmlns="http://www.w3.org/2000/svg">
<path d="M10.0832 18.2416V3.75825C10.0832 2.38325 9.4965 1.83325 8.039 1.83325H4.33567C2.87817 1.83325 2.2915 2.38325 2.2915 3.75825V18.2416C2.2915 19.6166 2.87817 20.1666 4.33567 20.1666H8.039C9.4965 20.1666 10.0832 19.6166 10.0832 18.2416Z" fill="white" fill-opacity="0.9"/>
<path d="M19.7082 9.99158V3.75825C19.7082 2.38325 19.1215 1.83325 17.664 1.83325H13.9607C12.5032 1.83325 11.9165 2.38325 11.9165 3.75825V9.99158C11.9165 11.3666 12.5032 11.9166 13.9607 11.9166H17.664C19.1215 11.9166 19.7082 11.3666 19.7082 9.99158Z" fill="white" fill-opacity="0.9"/>
<path d="M19.7082 18.2417V15.675C19.7082 14.3 19.1215 13.75 17.664 13.75H13.9607C12.5032 13.75 11.9165 14.3 11.9165 15.675V18.2417C11.9165 19.6167 12.5032 20.1667 13.9607 20.1667H17.664C19.1215 20.1667 19.7082 19.6167 19.7082 18.2417Z" fill="white"/>
</svg>
