<svg width="22" height="22" viewBox="0 0 22 22" fill="none" xmlns="http://www.w3.org/2000/svg">
<path d="M15.5833 19.0209H6.41659C2.37409 19.0209 1.14575 17.7926 1.14575 13.7501V13.2917C1.14575 12.9159 1.45742 12.6042 1.83325 12.6042C2.71325 12.6042 3.43742 11.8801 3.43742 11.0001C3.43742 10.1201 2.71325 9.39591 1.83325 9.39591C1.45742 9.39591 1.14575 9.08425 1.14575 8.70841V8.25008C1.14575 4.20758 2.37409 2.97925 6.41659 2.97925H15.5833C19.6258 2.97925 20.8541 4.20758 20.8541 8.25008V9.16675C20.8541 9.54258 20.5424 9.85425 20.1666 9.85425C19.2866 9.85425 18.5624 10.5784 18.5624 11.4584C18.5624 12.3384 19.2866 13.0626 20.1666 13.0626C20.5424 13.0626 20.8541 13.3742 20.8541 13.7501C20.8541 17.7926 19.6258 19.0209 15.5833 19.0209ZM2.52075 13.8967C2.53909 17.0501 3.18992 17.6459 6.41659 17.6459H15.5833C18.6449 17.6459 19.3874 17.1051 19.4699 14.3551C18.1591 14.0434 17.1874 12.8609 17.1874 11.4584C17.1874 10.0559 18.1683 8.87341 19.4791 8.56175V8.25008C19.4791 4.97758 18.8558 4.35425 15.5833 4.35425H6.41659C3.18992 4.35425 2.53909 4.95008 2.52075 8.10341C3.83159 8.41508 4.81242 9.59758 4.81242 11.0001C4.81242 12.4026 3.83159 13.5851 2.52075 13.8967Z" fill="#89909A"/>
<path d="M13.7501 14.5567C13.2367 14.5567 12.8242 14.1442 12.8242 13.6401C12.8242 13.1359 13.2367 12.7234 13.7409 12.7234C14.2451 12.7234 14.6576 13.1359 14.6576 13.6401C14.6576 14.1442 14.2634 14.5567 13.7501 14.5567Z" fill="#89909A"/>
<path d="M8.25005 9.97323C7.73672 9.97323 7.32422 9.56073 7.32422 9.05656C7.32422 8.55239 7.73672 8.13989 8.24089 8.13989C8.74505 8.13989 9.15755 8.55239 9.15755 9.05656C9.15755 9.56073 8.76339 9.97323 8.25005 9.97323Z" fill="#89909A"/>
<path d="M7.91079 15.0609C7.73663 15.0609 7.56246 14.9968 7.42496 14.8593C7.15913 14.5934 7.15913 14.1534 7.42496 13.8876L13.5941 7.71842C13.86 7.45258 14.3 7.45258 14.5658 7.71842C14.8316 7.98425 14.8316 8.42425 14.5658 8.69008L8.39663 14.8593C8.26829 14.9968 8.08496 15.0609 7.91079 15.0609Z" fill="#89909A"/>
</svg>
