<svg width="22" height="22" viewBox="0 0 22 22" fill="none" xmlns="http://www.w3.org/2000/svg">
<path d="M19.5247 9.93666C19.8822 9.93666 20.1663 9.6525 20.1663 9.295V8.4425C20.1663 4.68416 19.0205 3.53833 15.2622 3.53833H6.73717C2.97884 3.53833 1.83301 4.68416 1.83301 8.4425V8.87333C1.83301 9.23083 2.11717 9.515 2.47467 9.515C3.29967 9.515 3.96884 10.1842 3.96884 11.0092C3.96884 11.8342 3.29967 12.4942 2.47467 12.4942C2.11717 12.4942 1.83301 12.7783 1.83301 13.1358V13.5667C1.83301 17.325 2.97884 18.4708 6.73717 18.4708H15.2622C19.0205 18.4708 20.1663 17.325 20.1663 13.5667C20.1663 13.2092 19.8822 12.925 19.5247 12.925C18.6997 12.925 18.0305 12.2558 18.0305 11.4308C18.0305 10.6058 18.6997 9.93666 19.5247 9.93666ZM8.24967 8.14C8.75384 8.14 9.16634 8.5525 9.16634 9.05666C9.16634 9.56083 8.76301 9.97333 8.24967 9.97333C7.74551 9.97333 7.33301 9.56083 7.33301 9.05666C7.33301 8.5525 7.73634 8.14 8.24967 8.14ZM13.7497 14.5567C13.2363 14.5567 12.8238 14.1442 12.8238 13.64C12.8238 13.1358 13.2363 12.7233 13.7405 12.7233C14.2447 12.7233 14.6572 13.1358 14.6572 13.64C14.6572 14.1442 14.263 14.5567 13.7497 14.5567ZM14.5747 8.69L8.40551 14.8592C8.26801 14.9967 8.09384 15.0608 7.91967 15.0608C7.74551 15.0608 7.57134 14.9967 7.43384 14.8592C7.16801 14.5933 7.16801 14.1533 7.43384 13.8875L13.603 7.71833C13.8688 7.4525 14.3088 7.4525 14.5747 7.71833C14.8405 7.98416 14.8405 8.42416 14.5747 8.69Z" fill="white" fill-opacity="0.9"/>
</svg>
