<svg width="22" height="22" viewBox="0 0 22 22" fill="none" xmlns="http://www.w3.org/2000/svg">
<path d="M18.4252 8.45165C16.766 8.45165 16.0877 7.27832 16.9127 5.83915C17.3893 5.00498 17.1052 3.94165 16.271 3.46498L14.6852 2.55748C13.961 2.12665 13.026 2.38332 12.5952 3.10748L12.4943 3.28165C11.6693 4.72082 10.3127 4.72082 9.4785 3.28165L9.37766 3.10748C8.96516 2.38332 8.03016 2.12665 7.306 2.55748L5.72016 3.46498C4.886 3.94165 4.60183 5.01415 5.0785 5.84832C5.91266 7.27832 5.23433 8.45165 3.57516 8.45165C2.62183 8.45165 1.8335 9.23082 1.8335 10.1933V11.8066C1.8335 12.76 2.61266 13.5483 3.57516 13.5483C5.23433 13.5483 5.91266 14.7216 5.0785 16.1608C4.60183 16.995 4.886 18.0583 5.72016 18.535L7.306 19.4425C8.03016 19.8733 8.96516 19.6166 9.396 18.8925L9.49683 18.7183C10.3218 17.2791 11.6785 17.2791 12.5127 18.7183L12.6135 18.8925C13.0443 19.6166 13.9793 19.8733 14.7035 19.4425L16.2893 18.535C17.1235 18.0583 17.4077 16.9858 16.931 16.1608C16.0968 14.7216 16.7752 13.5483 18.4343 13.5483C19.3877 13.5483 20.176 12.7691 20.176 11.8066V10.1933C20.1668 9.23998 19.3877 8.45165 18.4252 8.45165ZM11.0002 13.9791C9.35933 13.9791 8.021 12.6408 8.021 11C8.021 9.35915 9.35933 8.02082 11.0002 8.02082C12.641 8.02082 13.9793 9.35915 13.9793 11C13.9793 12.6408 12.641 13.9791 11.0002 13.9791Z" fill="white"/>
</svg>
