<svg width="55" height="55" viewBox="0 0 55 55" fill="none" xmlns="http://www.w3.org/2000/svg">
<g clip-path="url(#clip0_1409_3187)">
<path d="M45.3568 18.3333C43.2341 18.3333 41.4972 20.0701 41.4972 22.193V19.2983C41.4972 17.1755 39.7604 15.4386 37.6375 15.4386C35.5147 15.4386 33.7778 17.1754 33.7778 19.2983V16.4036C33.7778 14.2808 32.041 12.5439 29.9182 12.5439C27.7954 12.5439 26.0585 14.2807 26.0585 16.4036V24.1229L23.1638 4.14911C22.8743 1.2543 21.427 -6.10352e-05 19.3041 -6.10352e-05C17.1813 -6.10352e-05 15.2515 1.64027 15.4445 3.85961L18.3392 27.9824L16.6024 25.3771C14.6725 21.9998 10.0409 20.456 6.95319 21.6139C6.47076 21.7103 6.18126 21.9998 5.79529 22.1928C4.63739 22.9647 4.83043 23.8331 4.83043 24.1226C4.83043 24.4121 10.3304 30.0086 13.5146 35.7015C13.5146 35.7015 16.3129 40.3331 19.3041 43.4208V46.3155C19.3041 51.1401 23.1638 54.9997 27.9883 54.9997H37.6375C41.4007 54.9997 45.2603 51.8155 46.1288 48.1489C46.3218 47.2805 46.7077 46.0261 47.2867 45.3507C48.1551 44.3858 49.2165 41.9734 49.2165 38.5963C49.2165 38.0174 49.2165 33.0963 49.2165 30.877V22.1928C49.2164 20.0701 47.4796 18.3333 45.3568 18.3333Z" fill="#FDC794"/>
<path d="M25.0949 48.2456C24.9985 48.2456 24.9985 48.2456 24.9019 48.2456C22.5861 47.8597 21.5247 46.5088 20.4633 45.2544C20.1738 44.8684 19.8844 44.4824 19.4985 44.1929C19.1125 43.8069 19.1125 43.2281 19.4985 42.8421C19.8844 42.4561 20.4633 42.4561 20.8493 42.8421C21.2353 43.2281 21.6212 43.7105 21.9107 44.0964C22.7791 45.2543 23.5511 46.2192 25.0949 46.4123C25.5774 46.5087 25.9633 46.9911 25.8669 47.4737C25.9633 47.8597 25.5774 48.2456 25.0949 48.2456Z" fill="#F9A671"/>
<path d="M43.4287 48.2456C43.0427 48.2456 42.6567 47.9561 42.4638 47.5701C42.3673 47.0877 42.6568 46.5087 43.1393 46.4122C44.6831 46.0263 44.7796 45.9298 45.0691 45.4474C45.1656 45.2543 45.262 45.0614 45.4551 44.8685C45.7446 44.4825 46.4199 44.386 46.8059 44.6755C47.1919 44.965 47.2883 45.6404 46.9989 46.0264C46.9025 46.2194 46.7094 46.4123 46.613 46.5088C45.9375 47.4737 45.5515 47.7632 43.5252 48.3422C43.6216 48.2456 43.5251 48.2456 43.4287 48.2456Z" fill="#F9A671"/>
<path d="M33.7793 24.4122C33.2004 24.4122 32.8145 24.0263 32.8145 23.4474V22.193C32.8145 21.6141 33.2004 21.2281 33.7793 21.2281C34.3582 21.2281 34.7442 21.6141 34.7442 22.193V23.4474C34.7443 24.0263 34.3583 24.4122 33.7793 24.4122Z" fill="#F9A671"/>
<path d="M41.4981 28.2719C40.9192 28.2719 40.5332 27.8859 40.5332 27.307V22.193C40.5332 21.6141 40.9192 21.2281 41.4981 21.2281C42.077 21.2281 42.4629 21.6141 42.4629 22.193V27.307C42.4629 27.8859 42.077 28.2719 41.4981 28.2719Z" fill="#F9A671"/>
<path d="M29.9183 29.9122C27.2165 29.9122 25.0938 27.7895 25.0938 25.0877V16.4035C25.0938 13.7017 27.2165 11.579 29.9183 11.579C32.62 11.579 34.7428 13.7017 34.7428 16.4035V25.0877C34.7429 27.7895 32.62 29.9122 29.9183 29.9122ZM29.9183 13.5087C28.2779 13.5087 27.0236 14.7631 27.0236 16.4034V25.0876C27.0236 26.7279 28.2779 27.9823 29.9183 27.9823C31.5586 27.9823 32.813 26.7279 32.813 25.0876V16.4034C32.8131 14.7632 31.5586 13.5087 29.9183 13.5087Z" fill="#F9A671"/>
<path d="M37.639 32.8071C34.9372 32.8071 32.8145 30.6843 32.8145 27.9825V19.2983C32.8145 16.5966 34.9372 14.4738 37.639 14.4738C40.3408 14.4738 42.4635 16.5966 42.4635 19.2983V27.9825C42.4635 30.6842 40.3408 32.8071 37.639 32.8071ZM37.639 16.4035C35.9987 16.4035 34.7443 17.6579 34.7443 19.2982V27.9824C34.7443 29.6228 35.9987 30.8771 37.639 30.8771C39.2793 30.8771 40.5337 29.6228 40.5337 27.9824V19.2982C40.5337 17.6579 39.2793 16.4035 37.639 16.4035Z" fill="#F9A671"/>
<path d="M45.3577 35.7017C42.656 35.7017 40.5332 33.579 40.5332 30.8772V22.193C40.5332 19.4912 42.656 17.3685 45.3577 17.3685C48.0595 17.3685 50.1823 19.4912 50.1823 22.193V30.8772C50.1823 33.5789 48.0594 35.7017 45.3577 35.7017ZM45.3577 19.2982C43.7174 19.2982 42.463 20.5526 42.463 22.1929V30.8771C42.463 32.5174 43.7174 33.7718 45.3577 33.7718C46.9981 33.7718 48.2524 32.5174 48.2524 30.8771V22.1929C48.2524 20.5526 46.9981 19.2982 45.3577 19.2982Z" fill="#F9A671"/>
<path d="M25.0947 36.6666C24.6123 36.6666 24.1299 36.2806 24.1299 35.7982C24.0334 34.6403 23.4544 34.1578 22.586 33.6754C19.4018 31.5527 18.1474 29.7193 17.472 28.5614C17.1825 28.079 17.3755 27.4999 17.8579 27.2106C18.3404 26.9212 18.9194 27.1141 19.2087 27.5965C19.5947 28.272 20.5596 30.0088 23.7439 32.1317C24.6123 32.7106 25.9632 33.5791 26.0597 35.7983C26.0596 36.1841 25.6736 36.6666 25.0947 36.6666Z" fill="#F9A671"/>
</g>
<defs>
<clipPath id="clip0_1409_3187">
<rect width="55" height="55" fill="white"/>
</clipPath>
</defs>
</svg>
