<svg width="55" height="55" viewBox="0 0 55 55" fill="none" xmlns="http://www.w3.org/2000/svg">
<g clip-path="url(#clip0_1409_3139)">
<path d="M42.7992 18.2098C42.65 16.4911 41.1574 15.1498 39.4407 15.1498C38.7308 15.1503 38.039 15.3738 37.463 15.7888C36.887 16.2038 36.456 16.7893 36.2308 17.4625L36.0816 7.30538V5.36662C36.0816 4.47591 35.7278 3.62168 35.0979 2.99185C34.4681 2.36202 33.6139 2.00819 32.7232 2.00819C31.8324 2.00819 30.9782 2.36202 30.3484 2.99185C29.7186 3.62168 29.3647 4.47591 29.3647 5.36662V3.35844C29.3647 2.46772 29.0109 1.61349 28.3811 0.983664C27.7512 0.353834 26.897 0 26.0063 0C25.1156 0 24.2613 0.353834 23.6315 0.983664C23.0017 1.61349 22.6478 2.46772 22.6478 3.35844V7.13556C22.6478 6.24485 22.294 5.39062 21.6642 4.76079C21.0344 4.13096 20.1801 3.77713 19.2894 3.77713C18.3987 3.77713 17.5445 4.13096 16.9146 4.76079C16.2848 5.39062 15.931 6.24485 15.931 7.13556V27.3859C15.931 28.8042 12.1992 31.1176 12.1992 35.1478V38.5811C12.1992 46.1931 16.6769 48.2831 16.6769 48.2831V52.0149C16.6793 52.8059 16.9945 53.5638 17.5538 54.1231C18.1131 54.6824 18.8711 54.9976 19.662 55H36.8282C38.3215 55 39.0674 53.6566 39.0674 52.1641V48.2831C41.9783 44.4022 42.7992 44.9247 42.7992 36.0456V18.2098Z" fill="#FDC794"/>
<path d="M36.1863 27.9297C35.6178 27.9297 35.2383 27.5502 35.2383 26.981V18.161C35.2383 17.5925 35.6178 17.213 36.1863 17.213C36.7549 17.213 37.1351 17.5925 37.1351 18.161V26.981C37.1351 27.5502 36.7556 27.9297 36.1863 27.9297Z" fill="#F9A671"/>
<path d="M28.6114 28.2631C28.0429 28.2631 27.6641 27.8836 27.6641 27.3151C27.6641 26.8414 27.948 26.4619 28.4203 26.367C28.5152 26.2728 28.6101 25.8933 28.6101 25.4196C28.6101 24.8511 28.9896 24.4716 29.5581 24.4716C30.1267 24.4716 30.5055 24.8511 30.5055 25.4196C30.5069 27.0311 29.7492 28.2631 28.6114 28.2631Z" fill="#F9A671"/>
<path d="M30.5068 28.2631C29.3696 28.2631 28.6113 27.0311 28.6113 25.4196C28.6113 24.8511 28.9908 24.4716 29.5594 24.4716C30.128 24.4716 30.5068 24.8511 30.5068 25.4196C30.5068 25.8933 30.6016 26.2728 30.6965 26.3677C31.076 26.4626 31.4528 26.8414 31.4528 27.3151C31.4548 27.8836 31.0746 28.2631 30.5068 28.2631Z" fill="#F9A671"/>
<path d="M29.5613 26.4619C28.9928 26.4619 28.6133 26.083 28.6133 25.5145V4.66399C28.6133 4.09543 28.9928 3.71661 29.5613 3.71661C30.1299 3.71661 30.5087 4.09543 30.5087 4.66399V25.5145C30.5082 25.7656 30.4082 26.0062 30.2306 26.1838C30.0531 26.3613 29.8124 26.4613 29.5613 26.4619Z" fill="#F9A671"/>
<path d="M22.5812 22.825C22.0236 22.825 21.6523 22.4531 21.6523 21.8962V7.38236C21.6523 6.8248 22.0236 6.45355 22.5812 6.45355C23.1387 6.45355 23.5113 6.8248 23.5113 7.38236V21.8955C23.5113 22.4524 23.1387 22.825 22.5812 22.825Z" fill="#F9A671"/>
<path d="M19.6627 50.5223C19.4671 50.5136 19.2813 50.4339 19.1402 50.2982C19.1402 50.2982 18.3949 49.6265 17.0502 48.8813C16.6769 48.7321 16.6026 48.2845 16.7518 47.9112C16.9759 47.5379 17.4235 47.4636 17.7968 47.6128C19.2894 48.4337 20.1102 49.1803 20.1845 49.1803C20.3208 49.3162 20.4034 49.4968 20.4172 49.6888C20.4309 49.8808 20.3749 50.0713 20.2594 50.2253C20.0367 50.4474 19.8875 50.5223 19.6627 50.5223Z" fill="#F9A671"/>
<path d="M38.3212 49.0291H36.8287C36.3804 49.0291 36.082 48.7307 36.082 48.2832C36.082 47.8356 36.3804 47.5366 36.8287 47.5366H38.3212C38.7688 47.5366 39.0672 47.8356 39.0672 48.2832C39.0672 48.7307 38.7688 49.0291 38.3212 49.0291Z" fill="#F9A671"/>
<path d="M18.1705 34.8494C17.8714 34.8494 17.573 34.6253 17.4239 34.3269C17.3489 33.9536 17.573 33.506 17.9464 33.4332C19.9614 32.9107 22.7974 30.2239 24.514 27.1638C25.1108 26.1195 24.6632 24.2537 23.6932 23.582C22.7994 22.9845 21.8273 23.8054 21.1556 24.6263C19.7912 26.2884 18.1501 27.7025 16.3046 28.8063C15.9313 28.9555 15.483 28.8805 15.2596 28.5072C15.1104 28.1346 15.1847 27.6863 15.558 27.4629C17.2767 26.4179 18.7672 25.1488 19.9614 23.6562C22.1257 20.9695 23.9915 21.9375 24.514 22.3128C26.1558 23.4307 26.7532 26.1938 25.7804 27.8335C24.1387 30.7443 21.0786 34.0285 18.3176 34.7772C18.3197 34.8494 18.2447 34.8494 18.1705 34.8494Z" fill="#F9A671"/>
</g>
<defs>
<clipPath id="clip0_1409_3139">
<rect width="55" height="55" fill="white"/>
</clipPath>
</defs>
</svg>
