<svg width="55" height="55" viewBox="0 0 55 55" fill="none" xmlns="http://www.w3.org/2000/svg">
<g clip-path="url(#clip0_1409_3111)">
<path d="M42.4274 20.933C42.2782 19.2143 40.7856 17.8729 39.0689 17.8729C38.359 17.8735 37.6673 18.0972 37.0914 18.5123C36.5155 18.9275 36.0847 19.5131 35.8597 20.1864H35.7105V18.2463C35.7105 17.8052 35.6236 17.3685 35.4549 16.961C35.2861 16.5536 35.0387 16.1833 34.7268 15.8715C34.415 15.5596 34.0447 15.3122 33.6373 15.1435C33.2298 14.9747 32.7931 14.8878 32.3521 14.8878C31.911 14.8878 31.4743 14.9747 31.0668 15.1435C30.6594 15.3122 30.2891 15.5596 29.9773 15.8715C29.6654 16.1833 29.418 16.5536 29.2493 16.961C29.0805 17.3685 28.9936 17.8052 28.9936 18.2463V3.35844C28.9936 2.46772 28.6398 1.61349 28.01 0.983664C27.3801 0.353834 26.5259 0 25.6352 0C24.7445 0 23.8902 0.353834 23.2604 0.983664C22.6306 1.61349 22.2768 2.46772 22.2768 3.35844V7.13556C22.2768 6.24485 21.9229 5.39062 21.2931 4.76079C20.6633 4.13096 19.809 3.77712 18.9183 3.77712C18.0276 3.77712 17.1734 4.13096 16.5435 4.76079C15.9137 5.39062 15.5599 6.24485 15.5599 7.13556V27.3859C15.5599 28.8042 11.8281 31.1176 11.8281 35.1478V38.5811C11.8281 46.1931 16.3058 48.2831 16.3058 48.2831V52.0149C16.3082 52.806 16.6235 53.564 17.183 54.1233C17.7424 54.6826 18.5005 54.9978 19.2916 55H36.4571C37.9497 55 38.6956 53.6566 38.6956 52.1641V48.2831C41.6065 44.4022 42.4274 44.9247 42.4274 36.0456V20.933Z" fill="#FDC794"/>
<path d="M22.2081 22.825C21.6505 22.825 21.2793 22.4531 21.2793 21.8962V7.38236C21.2793 6.8248 21.6505 6.45355 22.2081 6.45355C22.7657 6.45355 23.1369 6.8248 23.1369 7.38236V21.8955C23.1397 22.4524 22.7684 22.825 22.2081 22.825Z" fill="#F9A671"/>
<path d="M19.2914 50.5224C19.0959 50.5135 18.9102 50.4338 18.7689 50.2982C18.7689 50.2982 18.0223 49.6265 16.6789 48.8799C16.3063 48.7307 16.2314 48.2832 16.3806 47.9099C16.6047 47.5365 17.0522 47.4623 17.4256 47.6115C18.9181 48.4324 19.739 49.179 19.8139 49.179C19.9501 49.3149 20.0326 49.4954 20.0462 49.6873C20.0598 49.8791 20.0037 50.0695 19.8882 50.2233C19.6634 50.4474 19.5156 50.5224 19.2914 50.5224Z" fill="#F9A671"/>
<path d="M37.9515 49.0291H36.4576C36.01 49.0291 35.7109 48.7307 35.7109 48.2832C35.7109 47.8356 36.01 47.5366 36.4576 47.5366H37.9515C38.3991 47.5366 38.6981 47.8349 38.6981 48.2832C38.6981 48.7314 38.3977 49.0291 37.9515 49.0291Z" fill="#F9A671"/>
<path d="M17.7994 34.8494C17.501 34.8494 17.202 34.6253 17.0528 34.3269C16.9785 33.9536 17.202 33.506 17.5753 33.4332C19.5903 32.9107 22.4263 30.2239 24.143 27.1638C24.7397 26.1195 24.2921 24.2537 23.3221 23.582C22.4283 22.9845 21.4562 23.8054 20.7845 24.6263C19.4201 26.2884 17.779 27.7025 15.9335 28.8063C15.5602 28.9555 15.1126 28.8805 14.8885 28.5072C14.7393 28.1346 14.8136 27.6863 15.1869 27.4629C16.9056 26.4179 18.3961 25.1488 19.5903 23.6562C21.7546 20.9695 23.6205 21.9375 24.143 22.3128C25.7826 23.4307 26.3821 26.1938 25.4121 27.8335C23.7696 30.7443 20.7103 34.0285 17.9486 34.7772C17.9486 34.8494 17.8764 34.8494 17.7994 34.8494Z" fill="#F9A671"/>
<path d="M32.4071 30.7312C30.1686 30.7312 28.3027 28.8661 28.3027 26.6269V18.1019C28.3027 15.8634 30.1686 13.9975 32.4071 13.9975C34.6456 13.9975 36.5122 15.8634 36.5122 18.1019V26.6269C36.5122 28.8667 34.6463 30.7312 32.4071 30.7312ZM32.4071 15.8517C30.9895 15.8517 29.7946 17.0459 29.7946 18.4642V26.6276C29.7946 28.0459 30.9888 29.2401 32.4071 29.2401C33.8254 29.2401 35.0196 28.0466 35.0196 26.6276V18.4649C35.0196 17.05 33.8261 15.8524 32.4071 15.8524V15.8517Z" fill="#F9A671"/>
<path d="M39.0692 30.7017C36.8307 30.7017 34.9648 28.8358 34.9648 26.5967V20.8904C34.9648 18.6512 36.8307 16.7853 39.0692 16.7853C41.3077 16.7853 43.1763 18.6485 43.1763 20.8877V26.5939C43.1763 28.8358 41.3084 30.7017 39.0692 30.7017ZM39.0692 18.6443C37.6516 18.6443 36.4567 19.8385 36.4567 21.2568V26.5967C36.4567 28.015 37.6509 29.2092 39.0692 29.2092C40.4875 29.2092 41.6817 28.015 41.6817 26.5967V21.2568C41.6817 19.8385 40.4875 18.6443 39.0692 18.6443Z" fill="#F9A671"/>
</g>
<defs>
<clipPath id="clip0_1409_3111">
<rect width="55" height="55" fill="white"/>
</clipPath>
</defs>
</svg>
