<svg width="55" height="55" viewBox="0 0 55 55" fill="none" xmlns="http://www.w3.org/2000/svg">
<g clip-path="url(#clip0_1409_3098)">
<path d="M44.1324 18.8216C43.9687 16.9399 42.3325 15.4687 40.4508 15.4687C39.6728 15.4695 38.9147 15.7147 38.2836 16.1696C37.6524 16.6246 37.1802 17.2663 36.9335 18.0042H36.7699V15.8771C36.7699 15.3937 36.6747 14.915 36.4897 14.4684C36.3048 14.0219 36.0336 13.6161 35.6918 13.2743C35.35 12.9325 34.9442 12.6614 34.4977 12.4764C34.0511 12.2914 33.5724 12.1962 33.089 12.1962C32.6057 12.1962 32.127 12.2914 31.6804 12.4764C31.2339 12.6614 30.8281 12.9325 30.4863 13.2743C30.1445 13.6161 29.8733 14.0219 29.6884 14.4684C29.5034 14.915 29.4082 15.3937 29.4082 15.8771V13.4227C29.3949 12.4551 29.0013 11.5316 28.3124 10.852C27.6234 10.1724 26.6946 9.79143 25.727 9.79143C24.7593 9.79143 23.8305 10.1724 23.1415 10.852C22.4526 11.5316 22.059 12.4551 22.0457 13.4227L21.7707 3.69662C21.7707 3.21324 21.6755 2.7346 21.4905 2.28801C21.3056 1.84143 21.0344 1.43565 20.6926 1.09385C20.3508 0.75205 19.9451 0.480918 19.4985 0.295937C19.0519 0.110956 18.5732 0.0157471 18.0899 0.0157471C17.6065 0.0157471 17.1278 0.110956 16.6812 0.295937C16.2347 0.480918 15.8289 0.75205 15.4871 1.09385C15.1453 1.43565 14.8742 1.84143 14.6892 2.28801C14.5042 2.7346 14.409 3.21324 14.409 3.69662V24.7176C14.409 26.2721 10.3184 28.8082 10.3184 33.2254V36.9874C10.3184 45.3309 15.2264 47.6217 15.2264 47.6217V51.7116C15.229 52.5787 15.5746 53.4095 16.1878 54.0226C16.8009 54.6356 17.6318 54.9811 18.4989 54.9834H37.3165C38.9527 54.9834 39.7702 53.5115 39.7702 51.8752V47.6224C42.9609 43.3688 43.8608 43.9415 43.8608 34.2072V23.4911L44.1317 19.1489L43.8629 16.6196L44.1324 18.8216Z" fill="#FDC794"/>
<path d="M18.5034 50.0761C18.289 50.0665 18.0855 49.9793 17.9307 49.8306C17.9307 49.8306 17.1126 49.0943 15.6406 48.2769C15.2316 48.1132 15.1498 47.6224 15.3134 47.2133C15.5588 46.8008 16.049 46.7224 16.4581 46.8861C18.0943 47.786 18.9943 48.6048 19.0761 48.6048C19.2253 48.7537 19.3158 48.9516 19.3308 49.1619C19.3458 49.3722 19.2844 49.5808 19.1579 49.7495C18.9124 49.9942 18.7488 50.0761 18.5034 50.0761Z" fill="#F9A671"/>
<path d="M38.9524 48.4398H37.3162C36.8253 48.4398 36.498 48.1133 36.498 47.6224C36.498 47.1315 36.8253 46.8043 37.3162 46.8043H38.9524C39.4433 46.8043 39.7705 47.1315 39.7705 47.6224C39.7705 48.1133 39.4433 48.4398 38.9524 48.4398Z" fill="#F9A671"/>
<path d="M16.8667 32.8982C16.5394 32.8982 16.2122 32.6528 16.0485 32.3255C15.9667 31.9165 16.2122 31.4256 16.6212 31.3438C18.8302 30.7711 21.9384 27.8265 23.82 24.4688C24.4745 23.3241 23.9837 21.2788 22.9201 20.5425C21.9384 19.888 20.8748 20.7879 20.1392 21.6879C18.6435 23.5093 16.8447 25.0589 14.822 26.2687C14.4095 26.4323 13.9221 26.3505 13.6767 25.9414C13.513 25.5324 13.5949 25.0415 14.0039 24.796C15.8849 23.6514 17.5212 22.2605 18.8302 20.6243C21.202 17.6797 23.2474 18.7433 23.82 19.1524C25.6199 20.3789 26.2737 23.4059 25.2109 25.2024C23.411 28.393 20.0546 31.9921 17.0296 32.8102C17.0303 32.8982 16.9485 32.8982 16.8667 32.8982Z" fill="#F9A671"/>
<path d="M32.8174 29.5322C30.3637 29.5322 28.3184 27.4869 28.3184 25.0325V15.7148C28.3184 13.2604 30.3637 11.2158 32.8174 11.2158C35.271 11.2158 37.3164 13.2604 37.3164 15.7148V25.0332C37.3164 27.4869 35.269 29.5322 32.8174 29.5322ZM32.8174 13.2508C31.2629 13.2508 29.9546 14.5571 29.9546 16.1136V25.0332C29.9546 26.5869 31.2609 27.8959 32.8174 27.8959C34.3739 27.8959 35.6801 26.5897 35.6801 25.0332V16.1136C35.6815 14.5591 34.3752 13.2508 32.8174 13.2508Z" fill="#F9A671"/>
<path d="M40.1787 29.5583C37.725 29.5583 35.6797 27.5137 35.6797 25.0593V18.7687C35.6797 16.3143 37.725 14.2697 40.1787 14.2697C42.6324 14.2697 44.6784 16.3143 44.6784 18.7687V25.0593C44.6784 27.5137 42.6331 29.5583 40.1787 29.5583ZM40.1787 16.3108C38.6249 16.3108 37.3159 17.6171 37.3159 19.1736V25.0593C37.3159 26.6137 38.6222 27.9227 40.1787 27.9227C41.7352 27.9227 43.0421 26.6165 43.0421 25.0593V19.1736C43.0421 17.6192 41.7311 16.3108 40.1787 16.3108Z" fill="#F9A671"/>
<path d="M25.3734 29.6257C24.1462 29.6257 22.8372 29.6257 21.9359 28.4811C21.8167 28.3295 21.7518 28.1422 21.7518 27.9493C21.7518 27.7564 21.8167 27.5691 21.9359 27.4175C22.5086 26.8448 22.9995 25.8631 23.4904 25.0449C23.5722 24.8002 23.7358 24.6366 23.8176 24.3911C24.3085 23.4912 24.1449 22.0186 23.4085 21.0368C23.0813 20.6277 22.5904 20.1369 21.8541 20.2187C21.7407 20.2555 21.6191 20.2597 21.5034 20.2308C21.3876 20.2019 21.2824 20.141 21.1996 20.0551C21.036 19.8914 20.873 19.6467 20.873 19.4012V13.3925C20.873 10.9388 22.9177 8.89349 25.372 8.89349C27.8264 8.89349 29.871 10.9388 29.871 13.3925V25.1267C29.9542 27.6629 27.9124 29.6257 25.3734 29.6257ZM23.7372 27.8266C24.1497 27.9902 24.6371 27.9902 25.3734 27.9902C27.009 27.9902 28.318 26.6839 28.318 25.1267V13.3925C28.318 11.8387 27.0117 10.5297 25.4552 10.5297C23.8987 10.5297 22.5918 11.836 22.5918 13.3925V18.6649C23.4897 18.8539 24.2806 19.3809 24.8007 20.1369C25.8636 21.6913 26.107 23.8184 25.2916 25.2086C25.2098 25.3722 25.0462 25.6176 24.9644 25.7812C24.6163 26.4978 24.2056 27.1822 23.7372 27.8266Z" fill="#F9A671"/>
</g>
<defs>
<clipPath id="clip0_1409_3098">
<rect width="55" height="55" fill="white"/>
</clipPath>
</defs>
</svg>
