<svg width="23" height="23" viewBox="0 0 23 23" fill="none" xmlns="http://www.w3.org/2000/svg">
<path d="M22.6035 9.55483C22.6035 10.6649 21.7709 11.4975 20.6211 11.4975C19.5903 11.4975 18.6388 10.7442 18.6388 9.75307V7.85005C18.6388 8.9998 17.6873 9.91165 16.5772 9.91165C15.5464 9.91165 14.6742 9.07907 14.6742 8.00863V7.77073L14.5156 7.81039C14.2381 8.56366 13.4848 9.11873 12.6126 9.11873C12.0179 9.11873 11.5025 8.84122 11.1457 8.40507L10.5906 8.48439C10.3131 9.31697 9.55976 9.91165 8.64791 9.91165C7.97391 9.91165 7.37923 9.55483 7.06206 8.9998L5.43655 7.41395C5.11938 7.09678 4.80221 6.73995 4.52469 6.42278C3.61284 5.35234 1.98729 4.87654 0.877193 5.31269C0.67895 5.392 0.560023 5.47127 0.401437 5.55059C-0.0743178 5.86776 0.00495228 6.22458 0.00495228 6.34351C0.00495228 6.46244 1.86836 8.76195 3.1767 11.1011C3.1767 11.1011 4.56435 13.4799 5.75372 14.8279C5.95196 15.0658 6.1502 15.3433 6.3484 15.5812L7.14133 16.6516V18.2374C7.14133 20.6559 9.084 22.5986 11.5024 22.5986H16.4186C18.401 22.5986 20.4229 20.7748 20.7797 18.8718C20.859 18.396 21.0969 17.9203 21.4141 17.5238C21.8106 16.9687 22.6431 15.7793 22.6431 14.1538V9.55483H22.6035Z" fill="#FDC794"/>
<path d="M9.91649 18.9512C9.87684 18.9512 9.87684 18.9512 9.83718 18.9512C8.72708 18.7926 8.17201 18.079 7.69626 17.4843C7.53767 17.286 7.37909 17.0878 7.2205 16.8896C7.06192 16.731 7.06192 16.4931 7.2205 16.3345C7.37909 16.1759 7.61699 16.1759 7.77557 16.3345C7.97381 16.5328 8.17206 16.7706 8.33064 16.9689C8.76674 17.5239 9.16322 17.9997 9.95615 18.1186C10.1544 18.1583 10.313 18.3565 10.2733 18.5547C10.2733 18.8322 10.1147 18.9512 9.91649 18.9512Z" fill="#F9A671"/>
<path d="M19.4334 19.0305C19.2748 19.0305 19.1162 18.9115 19.0369 18.7529C18.9972 18.5547 19.1162 18.3168 19.3144 18.2772C20.1073 18.0789 20.2263 17.9204 20.4642 17.5635C20.5435 17.4842 20.5831 17.3653 20.7021 17.2464C20.821 17.0878 21.0985 17.0481 21.2571 17.167C21.4157 17.286 21.4554 17.5635 21.3364 17.7221C21.2571 17.841 21.1779 17.9204 21.1382 17.9996C20.821 18.4754 20.5831 18.7926 19.5127 19.0701C19.5127 19.0305 19.473 19.0305 19.4334 19.0305Z" fill="#F9A671"/>
<path d="M10.3138 13.0834C10.1156 13.0834 9.91735 12.9248 9.91735 12.7266C9.8777 12.2508 9.63984 12.0526 9.28301 11.8543C8.17292 11.1011 7.02316 9.79274 6.38882 8.99977C6.2699 8.84119 6.15092 8.72226 6.07165 8.60329C5.91307 8.4447 5.95273 8.2068 6.11131 8.04822C6.2699 7.88963 6.5078 7.92929 6.66638 8.08787C6.7457 8.2068 6.86462 8.32577 7.02321 8.48436C7.65755 9.23763 8.72803 10.5064 9.75881 11.1804C10.1156 11.4183 10.6707 11.775 10.7103 12.6869C10.7103 12.8852 10.5517 13.0834 10.3138 13.0834Z" fill="#F9A671"/>
<path d="M8.64716 9.91172C7.61634 9.91172 6.74414 9.07914 6.74414 8.0087V2.97355C6.74414 2.10131 7.4578 1.18945 8.32999 1.18945H9.12292C9.99516 1.18945 10.7088 2.10131 10.7088 2.97355V7.85007C10.7088 8.96017 9.75726 9.91172 8.64716 9.91172Z" fill="#FDC794"/>
<path d="M8.64716 10.3082C7.37848 10.3082 6.34766 9.27734 6.34766 8.00866V2.97355C6.34766 1.94272 7.18024 0.792969 8.32999 0.792969H9.12292C10.2727 0.792969 11.1053 1.94272 11.1053 2.97355V7.85007C11.1053 9.19807 9.99516 10.3082 8.64716 10.3082ZM8.32999 1.58589C7.65599 1.58589 7.14058 2.33916 7.14058 2.97355V8.04832C7.14058 8.8809 7.81458 9.5549 8.64716 9.5549C9.55902 9.5549 10.3123 8.80163 10.3123 7.88973V2.97355C10.3123 2.33921 9.79692 1.58589 9.12292 1.58589H8.32999Z" fill="#F9A671"/>
<path d="M12.612 9.11871C11.5812 9.11871 10.709 8.28613 10.709 7.21569V2.18058C10.709 1.30834 11.4226 0.396484 12.2948 0.396484H13.0878C13.96 0.396484 14.6736 1.30834 14.6736 2.18058V7.0571C14.6736 8.1672 13.7221 9.11871 12.612 9.11871Z" fill="#FDC794"/>
<path d="M12.612 9.51519C11.3433 9.51519 10.3125 8.48437 10.3125 7.21569V2.18058C10.3125 1.14975 11.1451 0 12.2948 0H13.0878C14.2375 0 15.0701 1.14975 15.0701 2.18058V7.0571C15.0701 8.4051 13.96 9.51519 12.612 9.51519ZM12.2948 0.792925C11.6208 0.792925 11.1054 1.54619 11.1054 2.18058V7.25535C11.1054 8.08793 11.7794 8.76193 12.612 8.76193C13.5239 8.76193 14.2772 8.00866 14.2772 7.09676V2.18058C14.2772 1.54624 13.7618 0.792925 13.0878 0.792925H12.2948Z" fill="#F9A671"/>
<path d="M16.5768 9.91172C15.546 9.91172 14.6738 9.07914 14.6738 8.0087V2.97355C14.6738 2.10131 15.3875 1.18945 16.2597 1.18945H17.0526C17.9248 1.18945 18.6385 2.10131 18.6385 2.97355V7.85007C18.6385 8.96017 17.687 9.91172 16.5768 9.91172Z" fill="#FDC794"/>
<path d="M16.5768 10.3082C15.3082 10.3082 14.2773 9.27734 14.2773 8.00866V2.97355C14.2773 1.94272 15.1099 0.792969 16.2597 0.792969H17.0526C18.2024 0.792969 19.0349 1.94272 19.0349 2.97355V7.85007C19.0349 9.19807 17.9248 10.3082 16.5768 10.3082ZM16.2597 1.58589C15.5857 1.58589 15.0703 2.33916 15.0703 2.97355V8.04832C15.0703 8.8809 15.7443 9.5549 16.5768 9.5549C17.4887 9.5549 18.242 8.80163 18.242 7.88973V2.97355C18.242 2.33921 17.7266 1.58589 17.0526 1.58589H16.2597Z" fill="#F9A671"/>
<path d="M20.621 11.4975C19.5902 11.4975 18.6387 10.7442 18.6387 9.71337V4.87645C18.6387 4.04387 19.3523 3.17163 20.2245 3.17163H21.0174C21.8897 3.17163 22.6033 4.04387 22.6033 4.87645V9.55478C22.6033 10.6649 21.7708 11.4975 20.621 11.4975Z" fill="#FDC794"/>
<path d="M20.621 11.8941C19.3127 11.8941 18.2422 10.9426 18.2422 9.71357V4.87665C18.2422 3.88549 19.0748 2.77539 20.2245 2.77539H21.0174C22.1672 2.77539 22.9998 3.88549 22.9998 4.87665V9.55498C22.9998 10.903 21.969 11.8941 20.621 11.8941ZM20.2245 3.56832C19.5505 3.56832 19.0351 4.28197 19.0351 4.87665V9.71357C19.0351 10.4668 19.7488 11.1012 20.621 11.1012C21.5328 11.1012 22.2068 10.4272 22.2068 9.55498V4.87665C22.2068 4.28197 21.6914 3.56832 21.0174 3.56832H20.2245Z" fill="#F9A671"/>
</svg>
