<svg width="23" height="23" viewBox="0 0 23 23" fill="none" xmlns="http://www.w3.org/2000/svg">
<g clip-path="url(#clip0_1391_4948)">
<path d="M19.0332 14.6724V8.72414C19.0332 8.72414 18.7556 7.53448 17.6452 7.53448C16.8918 7.53448 16.2573 7.97067 16.2573 8.72414V2.22067C16.2573 1.42757 15.6624 0.793096 14.8693 0.793096C14.1159 0.793096 13.4814 1.42757 13.4814 2.18105V1.38795C13.4814 0.634477 12.8866 0 12.0935 0C11.3004 0 10.7055 0.634477 10.7055 1.42757V3.01376C10.7055 2.22067 10.1107 1.58619 9.31759 1.58619C8.52445 1.58619 7.92964 2.22067 7.92964 3.01376V12.6896C7.92964 11.5793 7.01759 9.39824 5.94688 8.36719C5.07445 7.49477 2.61583 8.08962 3.96412 9.95339C4.91583 11.262 5.55031 14.0379 5.55031 15.5051C5.55031 19.0344 8.32617 20.2241 8.32617 20.2241V21.85C8.32617 22.5241 8.84169 23 9.51583 23H16.6539C17.328 23 17.8435 22.4845 17.8435 21.8103L17.8832 20.2638C19.1522 18.519 19.0332 18.5983 19.0332 14.6724Z" fill="#FDC794"/>
<path d="M9.51788 20.6205H8.32821C8.09026 20.6205 7.93164 20.4619 7.93164 20.224C7.93164 19.986 8.09026 19.8274 8.32821 19.8274H9.51788C9.75583 19.8274 9.91445 19.986 9.91445 20.224C9.91445 20.4619 9.75583 20.6205 9.51788 20.6205Z" fill="#F9A671"/>
<path d="M17.8459 20.6205H17.0528C16.8149 20.6205 16.6562 20.4619 16.6562 20.224C16.6562 19.986 16.8149 19.8274 17.0528 19.8274H17.8459C18.0839 19.8274 18.2425 19.986 18.2425 20.224C18.2425 20.4619 18.0839 20.6205 17.8459 20.6205Z" fill="#F9A671"/>
<path d="M9.12079 14.6724C8.24836 14.6724 7.57422 13.8 7.57422 12.7293C7.57422 12.4914 7.73284 12.3328 7.97079 12.3328C8.20874 12.3328 8.36736 12.4914 8.36736 12.7293C8.36736 13.3638 8.72426 13.8793 9.12079 13.8793C9.35874 13.8793 9.51736 14.038 9.51736 14.2759C9.51736 14.5139 9.3587 14.6724 9.12079 14.6724Z" fill="#F9A671"/>
<path d="M13.086 11.8966C12.8481 11.8966 12.6895 11.738 12.6895 11.5C12.6895 11.3017 12.8084 11.1431 13.0067 11.1034C13.0464 11.0638 13.086 10.9052 13.086 10.7069C13.086 10.4689 13.2446 10.3103 13.4826 10.3103C13.7205 10.3103 13.8792 10.4689 13.8792 10.7069C13.8792 11.3811 13.5619 11.8966 13.086 11.8966Z" fill="#F9A671"/>
<path d="M13.879 11.8965C13.4032 11.8965 13.0859 11.381 13.0859 10.7069C13.0859 10.4689 13.2446 10.3103 13.4825 10.3103C13.7205 10.3103 13.8791 10.4689 13.8791 10.7069C13.8791 10.9052 13.9187 11.0638 13.9584 11.1034C14.117 11.1431 14.2756 11.3017 14.2756 11.5C14.2756 11.7379 14.1169 11.8965 13.879 11.8965Z" fill="#F9A671"/>
<path d="M10.3106 11.1034C10.0727 11.1034 9.91406 10.9448 9.91406 10.7068C9.91406 10.5085 10.033 10.3499 10.2313 10.3102C10.271 10.2706 10.3106 10.1119 10.3106 9.91366C10.3106 9.67571 10.4693 9.51709 10.7072 9.51709C10.9452 9.51709 11.1038 9.67571 11.1038 9.91366C11.1038 10.5879 10.7865 11.1034 10.3106 11.1034Z" fill="#F9A671"/>
<path d="M11.1036 11.1033C10.6278 11.1033 10.3105 10.5878 10.3105 9.91366C10.3105 9.67571 10.4692 9.51709 10.7071 9.51709C10.9451 9.51709 11.1037 9.67571 11.1037 9.91366C11.1037 10.1119 11.1434 10.2706 11.183 10.3102C11.3416 10.3499 11.5003 10.5085 11.5003 10.7068C11.5002 10.9447 11.3415 11.1033 11.1036 11.1033Z" fill="#F9A671"/>
<path d="M17.6458 13.0862C16.5751 13.0862 15.8613 12.4517 15.8613 11.5V8.72413C15.8613 7.77242 16.6148 7.13794 17.6458 7.13794C18.6372 7.13794 19.4303 7.93104 19.4303 8.96208V11.5C19.4303 12.4517 18.7165 13.0862 17.6458 13.0862ZM17.6458 7.93104C17.1699 7.93104 16.6544 8.12932 16.6544 8.72413V11.5C16.6544 12.0948 17.2096 12.2931 17.6458 12.2931C18.1217 12.2931 18.6372 12.0948 18.6372 11.5V8.96204C18.6372 8.40689 18.2009 7.93104 17.6458 7.93104Z" fill="#F9A671"/>
<path d="M10.7071 10.7068C10.4692 10.7068 10.3105 10.5481 10.3105 10.3102V2.77572C10.3105 2.53777 10.4692 2.37915 10.7071 2.37915C10.9451 2.37915 11.1037 2.53777 11.1037 2.77572V10.3102C11.1037 10.5481 10.945 10.7068 10.7071 10.7068Z" fill="#F9A671"/>
<path d="M13.4825 11.143C13.2446 11.143 13.0859 10.9844 13.0859 10.7464V2.0223C13.0859 1.78435 13.2446 1.62573 13.4825 1.62573C13.7205 1.62573 13.8791 1.78435 13.8791 2.0223V10.7464C13.8791 10.9447 13.7205 11.143 13.4825 11.143Z" fill="#F9A671"/>
</g>
<defs>
<clipPath id="clip0_1391_4948">
<rect width="23" height="23" fill="white"/>
</clipPath>
</defs>
</svg>
