<svg width="23" height="23" viewBox="0 0 23 23" fill="none" xmlns="http://www.w3.org/2000/svg">
<g clip-path="url(#clip0_1391_4944)">
<path d="M19.0332 14.6722V8.7239C19.0332 8.7239 18.7556 7.53423 17.6452 7.53423C16.8918 7.53423 16.2573 7.97042 16.2573 8.68423V11.3015C16.2573 11.3015 16.1779 12.6894 14.8297 12.6894C14.0763 12.6894 13.4814 12.0549 13.4814 11.3015V7.73252V6.34457V2.77561V1.42733C13.4814 0.634232 12.8866 -0.000244141 12.0935 -0.000244141C11.3004 -0.000244141 10.7055 0.634232 10.7055 1.42733V3.01352C10.7055 2.22042 10.1107 1.58595 9.31759 1.58595C8.52445 1.58595 7.92964 2.22042 7.92964 3.01352V12.6894C7.92964 11.579 7.01759 9.398 5.94688 8.36695C5.07445 7.49452 2.61583 8.08938 3.96412 9.95314C4.91583 11.2618 5.55031 14.0376 5.55031 15.5049C5.55031 19.0342 8.32617 20.2238 8.32617 20.2238V21.8498C8.32617 22.5239 8.84169 22.9998 9.51583 22.9998H16.6539C17.328 22.9998 17.8435 22.4842 17.8435 21.8101L17.8832 20.2635C19.1522 18.5187 19.0332 18.598 19.0332 14.6722Z" fill="#FDC794"/>
<path d="M14.8698 12.6896C14.1163 12.6896 13.5215 12.0551 13.5215 11.3016V7.73268C13.5215 6.97925 14.1163 6.34473 14.8698 6.34473C15.6232 6.34473 16.2973 6.9792 16.2973 7.73268V11.3016C16.2577 12.0551 15.6232 12.6896 14.8698 12.6896Z" fill="#FDC794"/>
<path d="M14.8704 13.0861C13.879 13.0861 13.0859 12.2931 13.0859 11.3017V7.73272C13.0859 6.74134 13.879 5.94824 14.8307 5.94824C15.8221 5.94824 16.6549 6.74134 16.6549 7.73272V11.3017C16.6549 12.2931 15.8618 13.0861 14.8704 13.0861ZM14.8704 6.74134C14.3549 6.74134 13.9187 7.17753 13.9187 7.73272V11.3017C13.9187 11.8569 14.3549 12.2931 14.8704 12.2931C15.4256 12.2931 15.9015 11.8569 15.9015 11.3017V7.73272C15.8618 7.17753 15.3859 6.74134 14.8704 6.74134Z" fill="#F9A671"/>
<path d="M9.51788 20.6205H8.32821C8.09026 20.6205 7.93164 20.4619 7.93164 20.224C7.93164 19.986 8.09026 19.8274 8.32821 19.8274H9.51788C9.75583 19.8274 9.91445 19.986 9.91445 20.224C9.91445 20.4619 9.75583 20.6205 9.51788 20.6205Z" fill="#F9A671"/>
<path d="M17.844 20.6205H17.0509C16.8129 20.6205 16.6543 20.4619 16.6543 20.224C16.6543 19.986 16.8129 19.8274 17.0509 19.8274H17.844C18.0819 19.8274 18.2405 19.986 18.2405 20.224C18.2405 20.4619 18.0819 20.6205 17.844 20.6205Z" fill="#F9A671"/>
<path d="M9.12079 14.6724C8.24836 14.6724 7.57422 13.8 7.57422 12.7293C7.57422 12.4914 7.73284 12.3328 7.97079 12.3328C8.20874 12.3328 8.36736 12.4914 8.36736 12.7293C8.36736 13.3638 8.72426 13.8793 9.12079 13.8793C9.35874 13.8793 9.51736 14.038 9.51736 14.2759C9.51736 14.5139 9.3587 14.6724 9.12079 14.6724Z" fill="#F9A671"/>
<path d="M10.3106 11.1034C10.0727 11.1034 9.91406 10.9448 9.91406 10.7068C9.91406 10.5085 10.033 10.3499 10.2313 10.3102C10.271 10.2706 10.3106 10.1119 10.3106 9.91366C10.3106 9.67571 10.4693 9.51709 10.7072 9.51709C10.9452 9.51709 11.1038 9.67571 11.1038 9.91366C11.1038 10.5879 10.7865 11.1034 10.3106 11.1034Z" fill="#F9A671"/>
<path d="M11.1036 11.1033C10.6278 11.1033 10.3105 10.5878 10.3105 9.91366C10.3105 9.67571 10.4692 9.51709 10.7071 9.51709C10.9451 9.51709 11.1037 9.67571 11.1037 9.91366C11.1037 10.1119 11.1434 10.2706 11.183 10.3102C11.3416 10.3499 11.5003 10.5085 11.5003 10.7068C11.5002 10.9447 11.3415 11.1033 11.1036 11.1033Z" fill="#F9A671"/>
<path d="M17.6458 13.0862C16.5751 13.0862 15.8613 12.4517 15.8613 11.5V8.72413C15.8613 7.77242 16.6148 7.13794 17.6458 7.13794C18.6372 7.13794 19.4303 7.93104 19.4303 8.96208V11.5C19.4303 12.4517 18.7165 13.0862 17.6458 13.0862ZM17.6458 7.93104C17.1699 7.93104 16.6544 8.12932 16.6544 8.72413V11.5C16.6544 12.0948 17.2096 12.2931 17.6458 12.2931C18.1217 12.2931 18.6372 12.0948 18.6372 11.5V8.96204C18.6372 8.40689 18.2009 7.93104 17.6458 7.93104Z" fill="#F9A671"/>
<path d="M10.7071 10.7068C10.4692 10.7068 10.3105 10.5481 10.3105 10.3102V2.77572C10.3105 2.53777 10.4692 2.37915 10.7071 2.37915C10.9451 2.37915 11.1037 2.53777 11.1037 2.77572V10.3102C11.1037 10.5481 10.945 10.7068 10.7071 10.7068Z" fill="#F9A671"/>
</g>
<defs>
<clipPath id="clip0_1391_4944">
<rect width="23" height="23" fill="white"/>
</clipPath>
</defs>
</svg>
