<svg width="23" height="23" viewBox="0 0 23 23" fill="none" xmlns="http://www.w3.org/2000/svg">
<g clip-path="url(#clip0_1391_4932)">
<path d="M20.6232 7.93105C20.6232 7.05862 19.9094 6.34486 19.037 6.34486C18.1646 6.34486 17.4508 7.05866 17.4508 7.93105V10.7069V3.17243C17.4508 2.3 16.737 1.58624 15.8646 1.58624C14.9922 1.58624 14.2784 2.53795 14.2784 3.17243V7.93105V1.58619C14.2784 0.713764 13.5646 0 12.6922 0C11.8199 0 11.1061 0.594811 11.1061 1.58619V7.931V3.29138C11.1061 2.18105 10.3922 1.58619 9.51986 1.58619C8.64748 1.58619 7.93367 2.26033 7.93367 3.17238V11.8965L7.21986 10.8259C6.42676 9.43791 4.52329 8.80343 3.25433 9.27929C3.05605 9.31895 2.9371 9.43791 2.77848 9.51724C2.30262 9.83448 2.38191 10.1914 2.38191 10.3103C2.38191 10.4293 4.64224 12.7293 5.95086 15.069C5.95086 15.069 7.10086 16.9724 8.33019 18.2414V19.431C8.33019 21.4138 9.91638 23 11.8991 23H15.8647C17.4112 23 18.9974 21.6914 19.3543 20.1845C19.4337 19.8276 19.5923 19.3121 19.8302 19.0345C20.1871 18.6379 20.6233 17.6465 20.6233 16.2586C20.6233 15.981 20.6233 13.0466 20.6233 12.6897V7.93105H20.6232Z" fill="#FDC794"/>
<path d="M9.91587 19.8276C9.79691 19.8276 9.71758 19.7879 9.63829 19.7086C9.51934 19.55 9.32106 19.3914 9.12277 19.1931C8.88482 18.9551 8.60725 18.7172 8.44863 18.519C8.29001 18.3603 8.32968 18.1224 8.48829 17.9638C8.64691 17.8051 8.88486 17.8448 9.04348 18.0034C9.2021 18.1621 9.44005 18.4 9.67796 18.6379C9.87625 18.8362 10.1142 19.0345 10.2332 19.1931C10.3918 19.3517 10.3918 19.5897 10.1935 19.7483C10.1142 19.788 9.99515 19.8276 9.91587 19.8276Z" fill="#F9A671"/>
<path d="M8.32952 13.0862C8.1709 13.0862 8.05195 13.0069 7.97262 12.8483L7.57605 12.0552C7.49671 11.8569 7.57605 11.619 7.73466 11.5397C7.93295 11.4603 8.17086 11.5397 8.25019 11.6983L8.64676 12.4914C8.72609 12.6897 8.64676 12.9276 8.48814 13.0069C8.44852 13.0862 8.40885 13.0862 8.32952 13.0862Z" fill="#F9A671"/>
<path d="M11.1056 11.619C10.8676 11.619 10.709 11.4604 10.709 11.2225V3.17245C10.709 2.9345 10.8676 2.77588 11.1056 2.77588C11.3435 2.77588 11.5021 2.9345 11.5021 3.17245V11.2225C11.5021 11.4604 11.3435 11.619 11.1056 11.619Z" fill="#F9A671"/>
<path d="M14.2774 10.4294C14.0395 10.4294 13.8809 10.2708 13.8809 10.0329V2.77596C13.8809 2.53801 14.0395 2.37939 14.2774 2.37939C14.5154 2.37939 14.674 2.53801 14.674 2.77596V10.0329C14.674 10.2708 14.5154 10.4294 14.2774 10.4294Z" fill="#F9A671"/>
<path d="M17.4513 12.0158C17.2133 12.0158 17.0547 11.8571 17.0547 11.6192V7.93124C17.0547 7.69329 17.2133 7.53467 17.4513 7.53467C17.6892 7.53467 17.8478 7.69329 17.8478 7.93124V11.6192C17.8478 11.8571 17.6892 12.0158 17.4513 12.0158Z" fill="#F9A671"/>
<path d="M18.244 19.8276C18.0854 19.8276 17.9268 19.7087 17.8474 19.55C17.8078 19.3517 17.9268 19.1138 18.125 19.0742C19.1561 18.7966 19.394 18.4794 19.4733 18.1621C19.5526 17.9638 19.7509 17.8449 19.9492 17.8846C20.1474 17.9639 20.2664 18.1621 20.2267 18.3604C19.9492 19.2725 19.0767 19.6294 18.3233 19.8277C18.3233 19.8277 18.2837 19.8276 18.244 19.8276Z" fill="#F9A671"/>
</g>
<defs>
<clipPath id="clip0_1391_4932">
<rect width="23" height="23" fill="white"/>
</clipPath>
</defs>
</svg>
