<svg width="23" height="23" viewBox="0 0 23 23" fill="none" xmlns="http://www.w3.org/2000/svg">
<g clip-path="url(#clip0_1391_4952)">
<path d="M19.6322 4.71697C19.5543 3.82026 18.7746 3.11847 17.8784 3.11847C17.5077 3.11867 17.1465 3.23536 16.8457 3.45203C16.5449 3.66871 16.3199 3.97442 16.2023 4.32597H16.1241V3.31339C16.1241 2.84827 15.9393 2.4022 15.6104 2.07331C15.2815 1.74441 14.8355 1.55964 14.3703 1.55964C13.9052 1.55964 13.4591 1.74441 13.1303 2.07331C12.8014 2.4022 12.6166 2.84827 12.6166 3.31339V2.14413C12.6166 1.67901 12.4318 1.23293 12.1029 0.904042C11.774 0.57515 11.328 0.390381 10.8628 0.390381C10.3977 0.390381 9.95165 0.57515 9.62276 0.904042C9.29386 1.23293 9.10909 1.67901 9.10909 2.14413V2.92383C9.10909 2.45871 8.92433 2.01263 8.59543 1.68374C8.26654 1.35485 7.82047 1.17008 7.35534 1.17008C6.89022 1.17008 6.44415 1.35485 6.11526 1.68374C5.78636 2.01263 5.60159 2.45871 5.60159 2.92383V8.57608C5.60159 9.31697 3.65235 10.5253 3.65235 12.6298V14.423C3.65033 18.4 5.988 19.4925 5.988 19.4925V21.4414C5.98944 21.8545 6.15422 22.2502 6.44638 22.5422C6.73853 22.8342 7.13434 22.9987 7.54739 23H16.5134C17.2931 23 17.6829 22.2982 17.6829 21.5188V19.4925C19.2032 17.4653 19.6322 17.7387 19.6322 13.099V4.71697Z" fill="#FDC794"/>
<path d="M7.54709 20.6609C7.44499 20.6564 7.34802 20.6149 7.27426 20.5442C7.27426 20.5442 6.88441 20.1931 6.18176 19.8033C5.98683 19.7254 5.94802 19.4916 6.02593 19.2967C6.14295 19.1018 6.37668 19.0627 6.57218 19.1406C7.35188 19.5696 7.77968 19.9594 7.81965 19.9594C7.89085 20.0305 7.93401 20.1249 7.9412 20.2252C7.94838 20.3256 7.9191 20.4252 7.85875 20.5057C7.74202 20.6221 7.66411 20.6609 7.54709 20.6609Z" fill="#F9A671"/>
<path d="M17.2926 19.8813H16.5129C16.2792 19.8813 16.123 19.7254 16.123 19.4914C16.123 19.2574 16.2792 19.1016 16.5129 19.1016H17.2926C17.5266 19.1016 17.6824 19.2577 17.6824 19.4914C17.6824 19.7251 17.5266 19.8813 17.2926 19.8813Z" fill="#F9A671"/>
<path d="M6.76751 12.4747C6.61169 12.4747 6.45557 12.3576 6.37766 12.2018C6.33885 12.0069 6.45557 11.7729 6.6505 11.7338C7.70304 11.4609 9.18452 10.0576 10.0812 8.45943C10.3929 7.91318 10.1591 6.93884 9.65229 6.58809C9.18452 6.27615 8.67766 6.7051 8.32691 7.13434C7.61419 8.00251 6.75692 8.74112 5.79289 9.31761C5.59796 9.39553 5.36422 9.35643 5.24664 9.1615C5.16872 8.96658 5.20754 8.73284 5.40246 8.61525C6.29917 8.069 7.07887 7.40775 7.70246 6.62719C8.83291 5.22361 9.80754 5.73048 10.0807 5.9254C10.9383 6.51018 11.2499 7.95256 10.7433 8.81018C9.88574 10.3305 8.28724 12.0457 6.84485 12.4356C6.84542 12.4747 6.80661 12.4747 6.76751 12.4747Z" fill="#F9A671"/>
<path d="M14.3688 10.5253C13.1992 10.5253 12.2246 9.55063 12.2246 8.38108V3.31332C12.2246 2.14406 13.1992 1.16943 14.3688 1.16943C15.5383 1.16943 16.5127 2.14406 16.5127 3.31332V8.38137C16.5127 9.55063 15.5383 10.5253 14.3688 10.5253ZM14.3688 1.94913C13.6282 1.94913 13.0043 2.57272 13.0043 3.31332V8.38137C13.0043 9.12197 13.6282 9.74556 14.3688 9.74556C15.1094 9.74556 15.7333 9.12197 15.7333 8.38137V3.31332C15.7333 2.57272 15.1094 1.94913 14.3688 1.94913Z" fill="#F9A671"/>
<path d="M7.42097 7.64365C6.57083 8.44663 5.11608 10.477 5.16323 8.38108V3.31332C5.16323 2.14406 6.13785 1.16943 7.3074 1.16943C8.47695 1.16943 9.45158 2.14406 9.45158 3.31332L9.0945 5.85252C8.98727 6.2602 8.4781 6.64545 7.42097 7.64365ZM7.30597 1.94913C6.56537 1.94913 5.94149 2.57272 5.94149 3.31332V8.38137C5.94149 9.12197 6.6496 7.29146 7.3902 7.29146C8.1308 7.29146 8.6759 6.78287 8.6759 6.04227L8.67044 3.31332C8.67188 2.57272 8.04858 1.94913 7.3074 1.94913H7.30597Z" fill="#F9A671"/>
<path d="M17.8786 10.1356C16.709 10.1356 15.7344 9.161 15.7344 7.99174V4.87293C15.7344 3.70338 16.709 2.72876 17.8786 2.72876C19.0481 2.72876 20.0227 3.70338 20.0227 4.87293V7.9926C20.0227 9.161 19.0481 10.1356 17.8786 10.1356ZM17.8786 3.50846C17.138 3.50846 16.5141 4.13233 16.5141 4.87293V7.9926C16.5141 8.7332 17.138 9.35679 17.8786 9.35679C18.6192 9.35679 19.243 8.7332 19.243 7.9926V4.87293C19.243 4.13233 18.6192 3.5076 17.8786 3.5076V3.50846Z" fill="#F9A671"/>
<path d="M10.8219 10.9152C10.2371 10.9152 9.61441 10.9152 9.1846 10.369C9.12773 10.2967 9.0968 10.2075 9.0968 10.1155C9.0968 10.0236 9.12773 9.93435 9.1846 9.86211C9.45743 9.58928 9.69146 9.12151 9.9252 8.73166C9.9643 8.61465 10.0422 8.53674 10.0813 8.41973C10.315 7.99106 10.2371 7.28928 9.88638 6.82151C9.73027 6.62659 9.49654 6.39256 9.1455 6.43166C9.09147 6.44922 9.0336 6.45123 8.97849 6.43745C8.92337 6.42367 8.87325 6.39467 8.83385 6.35375C8.75565 6.27555 8.67773 6.15883 8.67773 6.04181V2.14418C8.67773 0.974625 9.65236 0 10.8219 0C11.9915 0 12.9652 0.974625 12.9652 2.14418V8.77105C13.0049 9.9797 12.0303 10.9152 10.8219 10.9152ZM10.0422 10.0576C10.2371 10.1355 10.4709 10.1355 10.8219 10.1355C11.6016 10.1355 12.2252 9.51194 12.2252 8.77134V2.14418C12.2252 1.40329 11.6016 0.7797 10.8607 0.7797C10.1198 0.7797 9.49653 1.40329 9.49653 2.14418V5.6925C9.92474 5.78198 10.3021 6.03288 10.5502 6.39314C11.0568 7.13374 11.1738 8.14689 10.784 8.81015C10.7451 8.88806 10.6672 9.00508 10.6281 9.08299C10.4709 9.39493 10.2759 9.74625 10.0422 10.0576Z" fill="#F9A671"/>
</g>
<defs>
<clipPath id="clip0_1391_4952">
<rect width="23" height="23" fill="white"/>
</clipPath>
</defs>
</svg>
