<svg width="220" height="220" viewBox="0 0 220 220" fill="none" xmlns="http://www.w3.org/2000/svg">
<g clip-path="url(#clip0_1104_4569)">
<path d="M27.5 27.5H55V55H27.5V27.5Z" fill="#F9F7F7"/>
<path d="M82.5 0V82.5H0V0H82.5ZM68.75 13.75H13.75V68.75H68.75V13.75ZM55 165H27.5V192.5H55V165Z" fill="#F9F7F7"/>
<path d="M82.5 137.5V220H0V137.5H82.5ZM13.75 151.25V206.25H68.75V151.25H13.75ZM165 27.5H192.5V55H165V27.5Z" fill="#F9F7F7"/>
<path d="M137.5 0V82.5H220V0H137.5ZM206.25 13.75V68.75H151.25V13.75H206.25ZM110 13.75V0H123.75V27.5H110V55H96.25V13.75H110ZM110 82.5V55H123.75V82.5H110ZM82.5 110V96.25H96.25V82.5H110V110H123.75V96.25H192.5V110H137.5V123.75H96.25V110H82.5ZM82.5 110V123.75H27.5V110H13.75V123.75H0V96.25H41.25V110H82.5ZM220 123.75H206.25V96.25H220V123.75ZM206.25 123.75H192.5V151.25H220V137.5H206.25V123.75ZM151.25 123.75H178.75V137.5H165V151.25H151.25V123.75ZM178.75 165V151.25H165V165H151.25V178.75H123.75V192.5H165V165H178.75ZM178.75 165H220V178.75H192.5V192.5H178.75V165ZM123.75 151.25V165H137.5V137.5H96.25V151.25H123.75Z" fill="#F9F7F7"/>
<path d="M96.25 165H110V206.25H165V220H96.25V165ZM220 192.5V220H178.75V206.25H206.25V192.5H220Z" fill="#F9F7F7"/>
</g>
<defs>
<clipPath id="clip0_1104_4569">
<rect width="220" height="220" fill="white"/>
</clipPath>
</defs>
</svg>
