<svg width="92" height="90" viewBox="0 0 92 90" fill="none" xmlns="http://www.w3.org/2000/svg">
<g clip-path="url(#clip0_1104_4585)">
<path d="M11.5 11.25H23V22.5H11.5V11.25Z" fill="#112D4E"/>
<path d="M34.5 0V33.75H0V0H34.5ZM28.75 5.625H5.75V28.125H28.75V5.625ZM23 67.5H11.5V78.75H23V67.5Z" fill="#112D4E"/>
<path d="M34.5 56.25V90H0V56.25H34.5ZM5.75 61.875V84.375H28.75V61.875H5.75ZM69 11.25H80.5V22.5H69V11.25Z" fill="#112D4E"/>
<path d="M57.7227 0V33.75H92.2227V0H57.7227ZM86.4727 5.625V28.125H63.4727V5.625H86.4727ZM46.2227 5.625V0H51.9727V11.25H46.2227V22.5H40.4727V5.625H46.2227ZM46.2227 33.75V22.5H51.9727V33.75H46.2227ZM34.7227 45V39.375H40.4727V33.75H46.2227V45H51.9727V39.375H80.7227V45H57.7227V50.625H40.4727V45H34.7227ZM34.7227 45V50.625H11.7227V45H5.97266V50.625H0.222656V39.375H17.4727V45H34.7227ZM92.2227 50.625H86.4727V39.375H92.2227V50.625ZM86.4727 50.625H80.7227V61.875H92.2227V56.25H86.4727V50.625ZM63.4727 50.625H74.9727V56.25H69.2227V61.875H63.4727V50.625ZM74.9727 67.5V61.875H69.2227V67.5H63.4727V73.125H51.9727V78.75H69.2227V67.5H74.9727ZM74.9727 67.5H92.2227V73.125H80.7227V78.75H74.9727V67.5ZM51.9727 61.875V67.5H57.7227V56.25H40.4727V61.875H51.9727Z" fill="#112D4E"/>
<path d="M40.25 67.5H46V84.375H69V90H40.25V67.5ZM92 78.75V90H74.75V84.375H86.25V78.75H92Z" fill="#112D4E"/>
</g>
<defs>
<clipPath id="clip0_1104_4585">
<rect width="92" height="90" fill="white"/>
</clipPath>
</defs>
</svg>
