<svg width="150" height="150" viewBox="0 0 150 150" fill="none" xmlns="http://www.w3.org/2000/svg">
<g clip-path="url(#clip0_1104_4069)">
<path d="M56.25 117.187C56.25 115.944 56.7439 114.752 57.6229 113.873C58.502 112.994 59.6943 112.5 60.9375 112.5H89.0625C90.3057 112.5 91.498 112.994 92.3771 113.873C93.2561 114.752 93.75 115.944 93.75 117.187C93.75 118.431 93.2561 119.623 92.3771 120.502C91.498 121.381 90.3057 121.875 89.0625 121.875H60.9375C59.6943 121.875 58.502 121.381 57.6229 120.502C56.7439 119.623 56.25 118.431 56.25 117.187ZM28.125 75.5811C28.125 63.3749 39.7031 54.0468 51.8438 55.1811C67.2478 56.6177 82.7522 56.6177 98.1563 55.1811C110.297 54.0468 121.875 63.3749 121.875 75.5811V86.428C121.919 88.5037 121.221 90.527 119.906 92.1339C118.591 93.7408 116.746 94.8257 114.703 95.1936C106.781 96.5718 92.7656 98.4374 75 98.4374C57.2344 98.4374 43.2188 96.5624 35.2969 95.1936C33.2536 94.8257 31.4086 93.7408 30.0939 92.1339C28.7791 90.527 28.081 88.5037 28.125 86.428V75.5811ZM70.7063 67.828C70.3409 67.7659 69.966 67.7912 69.6124 67.9021C69.2588 68.0129 68.9364 68.206 68.6719 68.4655L60.0469 76.903C54.1806 76.5513 48.3296 75.979 42.5063 75.1874C41.9028 75.1274 41.2997 75.3037 40.8235 75.6791C40.3473 76.0545 40.0351 76.5999 39.9526 77.2007C39.87 77.8014 40.0236 78.4108 40.3809 78.9007C40.7382 79.3907 41.2715 79.723 41.8688 79.828C47.025 80.5405 53.4188 81.2249 60.8063 81.6374C61.1316 81.6557 61.4573 81.606 61.7624 81.4914C62.0675 81.3768 62.3453 81.1998 62.5781 80.9718L69.6469 74.0718L77.5875 90.103C77.7548 90.4393 78.0004 90.7305 78.3038 90.952C78.6071 91.1736 78.9592 91.3189 79.3305 91.3759C79.7018 91.4329 80.0813 91.3998 80.4371 91.2794C80.7929 91.1591 81.1146 90.9549 81.375 90.6843L90.1125 81.5905C96.1392 81.2353 102.15 80.6474 108.131 79.828C108.729 79.723 109.262 79.3907 109.619 78.9007C109.976 78.4108 110.13 77.8014 110.047 77.2007C109.965 76.5999 109.653 76.0545 109.177 75.6791C108.7 75.3037 108.097 75.1274 107.494 75.1874C102.45 75.8811 96.1781 76.5468 88.9313 76.9593C88.3412 76.9921 87.7854 77.2466 87.375 77.6718L80.3063 85.0311L72.4125 69.0936C72.2479 68.7632 72.0075 68.4763 71.711 68.2564C71.4145 68.0365 71.0702 67.8897 70.7063 67.828Z" fill="url(#paint0_linear_1104_4069)"/>
<path d="M79.6875 17.494C81.4748 16.4621 82.8716 14.8693 83.6614 12.9627C84.4511 11.056 84.5897 8.94201 84.0556 6.94857C83.5214 4.95513 82.3444 3.19365 80.7071 1.93731C79.0699 0.680976 77.0638 0 75 0C72.9362 0 70.9302 0.680976 69.2929 1.93731C67.6556 3.19365 66.4786 4.95513 65.9445 6.94857C65.4103 8.94201 65.5489 11.056 66.3386 12.9627C67.1284 14.8693 68.5252 16.4621 70.3125 17.494V28.1252H51.5625C40.3737 28.1252 29.6431 32.57 21.7314 40.4817C13.8197 48.3934 9.375 59.1239 9.375 70.3127V75.0002C6.8886 75.0002 4.50403 75.988 2.74587 77.7461C0.987721 79.5043 0 81.8888 0 84.3752L0 103.125C0 105.612 0.987721 107.996 2.74587 109.754C4.50403 111.513 6.8886 112.5 9.375 112.5V121.875C9.375 126.848 11.3504 131.617 14.8667 135.133C18.3831 138.65 23.1522 140.625 28.125 140.625H121.875C126.848 140.625 131.617 138.65 135.133 135.133C138.65 131.617 140.625 126.848 140.625 121.875V112.5C143.111 112.5 145.496 111.513 147.254 109.754C149.012 107.996 150 105.612 150 103.125V84.3752C150 81.8888 149.012 79.5043 147.254 77.7461C145.496 75.988 143.111 75.0002 140.625 75.0002V70.3127C140.625 59.1239 136.18 48.3934 128.269 40.4817C120.357 32.57 109.626 28.1252 98.4375 28.1252H79.6875V17.494ZM131.25 70.3127V121.875C131.25 124.362 130.262 126.746 128.504 128.504C126.746 130.263 124.361 131.25 121.875 131.25H28.125C25.6386 131.25 23.254 130.263 21.4959 128.504C19.7377 126.746 18.75 124.362 18.75 121.875V70.3127C18.75 61.6103 22.207 53.2643 28.3606 47.1108C34.5141 40.9573 42.8601 37.5002 51.5625 37.5002H98.4375C107.14 37.5002 115.486 40.9573 121.639 47.1108C127.793 53.2643 131.25 61.6103 131.25 70.3127Z" fill="url(#paint1_linear_1104_4069)"/>
</g>
<defs>
<linearGradient id="paint0_linear_1104_4069" x1="121.877" y1="121.875" x2="18.1829" y2="105.132" gradientUnits="userSpaceOnUse">
<stop stop-color="#112D4E"/>
<stop offset="0.439834" stop-color="#274F7D"/>
<stop offset="1" stop-color="#3F72AF"/>
</linearGradient>
<linearGradient id="paint1_linear_1104_4069" x1="150" y1="140.625" x2="-17.7042" y2="120.05" gradientUnits="userSpaceOnUse">
<stop stop-color="#112D4E"/>
<stop offset="0.439834" stop-color="#274F7D"/>
<stop offset="1" stop-color="#3F72AF"/>
</linearGradient>
<clipPath id="clip0_1104_4069">
<rect width="150" height="150" fill="white"/>
</clipPath>
</defs>
</svg>
